HIERARCHY
ROOT Hips
{
	OFFSET -0.001795 -0.223333 0.028219
	CHANNELS 6 Xposition Yposition Zposition Zrotation Yrotation Xrotation 
	JOINT LeftUpLeg
	{
		OFFSET 0.069520 -0.091406 -0.006815
		CHANNELS 3 Zrotation Yrotation Xrotation
		JOINT LeftLeg
		{
			OFFSET 0.034277 -0.375199 -0.004496
			CHANNELS 3 Zrotation Yrotation Xrotation
			JOINT LeftFoot
			{
				OFFSET -0.013596 -0.397961 -0.043693
				CHANNELS 3 Zrotation Yrotation Xrotation
				JOINT LeftToe
				{
					OFFSET 0.026358 -0.055791 0.119288
					CHANNELS 3 Zrotation Yrotation Xrotation
					End Site
					{
						OFFSET 0.000000 0.000000 0.000000
					}
				}
			}
		}
	}
	JOINT RightUpLeg
	{
		OFFSET -0.067670 -0.090522 -0.004320
		CHANNELS 3 Zrotation Yrotation Xrotation
		JOINT RightLeg
		{
			OFFSET -0.038290 -0.382569 -0.008850
			CHANNELS 3 Zrotation Yrotation Xrotation
			JOINT RightFoot
			{
				OFFSET 0.015774 -0.398415 -0.042312
				CHANNELS 3 Zrotation Yrotation Xrotation
				JOINT RightToe
				{
					OFFSET -0.025372 -0.048144 0.123348
					CHANNELS 3 Zrotation Yrotation Xrotation
					End Site
					{
						OFFSET 0.000000 0.000000 0.000000
					}
				}
			}
		}
	}
	JOINT Spine
	{
		OFFSET -0.002533 0.108963 -0.026696
		CHANNELS 3 Zrotation Yrotation Xrotation
		JOINT Spine1
		{
			OFFSET 0.005487 0.135180 0.001092
			CHANNELS 3 Zrotation Yrotation Xrotation
			JOINT Spine2
			{
				OFFSET 0.001457 0.052922 0.025425
				CHANNELS 3 Zrotation Yrotation Xrotation
				JOINT Neck
				{
					OFFSET -0.002778 0.213870 -0.042857
					CHANNELS 3 Zrotation Yrotation Xrotation
					JOINT Head
					{
						OFFSET 0.005152 0.064970 0.051349
						CHANNELS 3 Zrotation Yrotation Xrotation
						End Site
						{
							OFFSET 0.000000 0.000000 0.000000
						}
					}
				}
				JOINT LeftShoulder
				{
					OFFSET 0.078845 0.121749 -0.034090
					CHANNELS 3 Zrotation Yrotation Xrotation
					JOINT LeftArm
					{
						OFFSET 0.090977 0.030469 -0.008868
						CHANNELS 3 Zrotation Yrotation Xrotation
						JOINT LeftForeArm
						{
							OFFSET 0.259612 -0.012772 -0.027456
							CHANNELS 3 Zrotation Yrotation Xrotation
							JOINT LeftHand
							{
								OFFSET 0.249234 0.008986 -0.001171
								CHANNELS 3 Zrotation Yrotation Xrotation
								End Site
								{
									OFFSET 0.000000 0.000000 0.000000
								}
							}
						}
					}
				}
				JOINT RightShoulder
				{
					OFFSET -0.081759 0.118833 -0.038615
					CHANNELS 3 Zrotation Yrotation Xrotation
					JOINT RightArm
					{
						OFFSET -0.096012 0.032551 -0.009143
						CHANNELS 3 Zrotation Yrotation Xrotation
						JOINT RightForeArm
						{
							OFFSET -0.253742 -0.013329 -0.021401
							CHANNELS 3 Zrotation Yrotation Xrotation
							JOINT RightHand
							{
								OFFSET -0.255298 0.007772 -0.005559
								CHANNELS 3 Zrotation Yrotation Xrotation
								End Site
								{
									OFFSET 0.000000 0.000000 0.000000
								}
							}
						}
					}
				}
			}
		}
	}
}
MOTION
Frames: 14
Frame Time: 0.050000
-0.002478 0.829973 0.018929 -3.094009 -9.803832 3.961171 16.147037 -0.194675 25.809451 -10.126686 0.418716 -35.231561 77.522024 51.918611 79.423770 0.000000 0.000000 0.000000 -24.075166 3.260532 10.584314 29.326724 4.345155 -25.746393 -66.808246 -62.409183 52.158042 0.000000 0.000000 0.000000 4.239561 0.944910 -10.925045 0.837360 0.445751 -28.058907 2.176125 8.501935 37.172622 12.233590 -0.071417 -62.042085 0.000000 0.000000 0.000000 -16.734630 7.286074 -4.779170 -51.099851 -8.065194 -6.455280 -39.502074 45.112786 -17.419828 0.000000 0.000000 0.000000 18.613256 -13.676547 -7.939175 49.283697 -12.061841 -12.806850 131.614197 -57.518521 -100.329186 0.000000 0.000000 0.000000 
-0.002277 0.829480 0.020998 -2.693539 -8.077962 6.003213 15.953953 -0.473334 26.672499 -10.256755 0.162620 -42.759514 87.195443 38.948870 105.837538 0.000000 0.000000 0.000000 -23.228279 3.629671 15.176331 25.406760 6.337510 -39.199708 -97.648674 -54.131342 92.782701 0.000000 0.000000 0.000000 2.639833 0.919616 -12.595044 2.232137 0.712909 -35.151863 2.309254 6.267386 44.919839 8.261892 1.981681 -75.263875 0.000000 0.000000 0.000000 -18.124541 7.074404 -4.324533 -51.644223 -9.398350 -7.053092 -56.251200 53.228716 -28.741807 0.000000 0.000000 0.000000 16.472030 -14.531811 -8.086788 50.234817 -13.099062 -14.324093 166.928550 -56.366923 -153.321987 0.000000 0.000000 0.000000 
-0.001624 0.826133 0.021783 -2.844773 -8.037548 7.578160 16.050448 -0.547146 27.280088 -10.555508 0.101478 -47.186789 93.670640 33.950711 114.882016 0.000000 0.000000 0.000000 -23.912291 4.209213 17.487154 25.002401 7.805185 -46.399016 -102.680422 -48.366505 103.066782 0.000000 0.000000 0.000000 2.579243 1.070592 -14.384947 2.476480 0.861781 -37.358350 2.976697 6.580015 48.368909 8.783963 2.277737 -80.173711 0.000000 0.000000 0.000000 -17.679975 9.231643 -5.517789 -53.091031 -9.848935 -7.418879 -79.373831 58.464950 -46.879948 0.000000 0.000000 0.000000 16.360987 -16.317641 -8.942197 51.139123 -15.391644 -15.836457 178.159294 -52.664820 -171.808823 0.000000 0.000000 0.000000 
-0.000633 0.824938 0.021894 -2.597166 -7.545617 8.761402 15.582918 -0.559557 26.770429 -9.605110 0.341524 -49.579934 93.065354 30.493018 118.982827 0.000000 0.000000 0.000000 -24.020550 4.574608 19.806808 23.977203 8.553341 -52.268430 -103.119884 -43.584880 109.030583 0.000000 0.000000 0.000000 1.772701 1.089907 -15.715263 2.746539 1.022757 -39.708386 3.162154 5.683942 51.402683 7.985569 2.572061 -83.229948 0.000000 0.000000 0.000000 -17.238945 10.008415 -5.709118 -54.784636 -8.875054 -8.404899 -98.265265 59.226187 -61.448241 0.000000 0.000000 0.000000 15.986404 -16.390635 -8.914602 53.218298 -17.086511 -17.553002 -175.415014 -48.307956 175.889818 0.000000 0.000000 0.000000 
0.000557 0.823363 0.021184 -2.490695 -7.585559 8.690618 16.167541 -0.682664 26.258699 -9.342391 0.440465 -49.627272 95.987031 30.036167 120.117581 0.000000 0.000000 0.000000 -24.778112 4.879305 20.427750 24.614645 9.052417 -53.416148 -104.894036 -43.278056 110.257591 0.000000 0.000000 0.000000 1.379088 1.107724 -16.350414 3.215125 0.996971 -39.916945 3.792124 6.255696 52.575989 8.693668 2.538695 -84.804446 0.000000 0.000000 0.000000 -17.148950 10.760607 -6.267785 -55.385328 -8.572006 -8.761992 -113.459102 57.882789 -74.020620 0.000000 0.000000 0.000000 16.517798 -16.900711 -9.128973 54.316170 -17.657379 -18.283456 -171.538384 -44.664245 167.681072 0.000000 0.000000 0.000000 
0.002156 0.822629 0.019369 -2.324782 -6.286298 8.379078 17.023277 -1.055607 25.607320 -10.223364 -0.109442 -50.007563 97.869092 30.094545 119.642220 0.000000 0.000000 0.000000 -24.998658 4.856715 21.509922 24.270110 8.903508 -55.184411 -106.808514 -40.641056 114.142564 0.000000 0.000000 0.000000 0.324692 0.895976 -15.609997 3.571961 1.165853 -42.737695 3.958157 5.164064 54.964063 6.977939 2.778185 -86.876900 0.000000 0.000000 0.000000 -16.308045 11.017979 -6.223542 -56.748307 -8.423238 -9.263208 -119.329306 58.422281 -79.932519 0.000000 0.000000 0.000000 15.807707 -16.775514 -8.906353 56.121161 -17.347252 -18.975093 -170.668647 -42.471022 165.741809 0.000000 0.000000 0.000000 
0.004222 0.820746 0.017005 -2.266732 -6.054888 7.917096 17.204989 -1.128106 26.167256 -10.226200 -0.186086 -50.469389 101.017102 31.719791 118.158769 0.000000 0.000000 0.000000 -25.802335 5.232256 22.889167 25.362547 9.315432 -55.410742 -105.966672 -40.967842 113.612337 0.000000 0.000000 0.000000 0.093292 0.903844 -16.202709 3.152723 1.186549 -42.878954 4.773076 4.951017 55.370239 6.260058 2.824245 -87.369030 0.000000 0.000000 0.000000 -15.703707 10.013353 -5.569028 -57.524946 -8.706548 -9.255776 -121.131647 57.785680 -80.901825 0.000000 0.000000 0.000000 14.642320 -16.262713 -8.366134 57.733143 -17.153257 -19.398236 -169.851696 -39.883828 162.740122 0.000000 0.000000 0.000000 
0.006815 0.818630 0.015140 -2.030395 -5.135830 6.573949 18.047046 -1.434337 26.506640 -10.763757 -0.626803 -51.077000 102.336649 31.309949 118.430657 0.000000 0.000000 0.000000 -26.382654 5.276193 23.815638 25.428406 9.131716 -55.615596 -108.389091 -39.462012 116.265596 0.000000 0.000000 0.000000 -0.204616 0.800385 -15.626370 2.312792 1.256018 -43.966889 5.610958 3.840328 56.242072 3.226873 2.982982 -88.433853 0.000000 0.000000 0.000000 -16.022227 8.715112 -4.782330 -57.258622 -10.653917 -8.476331 -119.579549 59.737267 -81.349156 0.000000 0.000000 0.000000 14.762261 -15.257408 -7.830760 58.324098 -14.384791 -18.504579 -167.647576 -39.069931 156.945731 0.000000 0.000000 0.000000 
0.010207 0.817914 0.014913 -1.916299 -4.642100 4.711353 18.347736 -1.546362 27.291296 -10.904372 -0.861477 -51.162171 105.314712 32.622007 117.402697 0.000000 0.000000 0.000000 -27.328417 5.593182 25.386488 26.617252 9.453990 -55.274871 -105.910119 -40.073190 114.968160 0.000000 0.000000 0.000000 0.005076 0.770463 -15.082357 1.855713 1.170489 -42.968237 6.180400 4.025546 55.258412 2.265157 2.853474 -87.545452 0.000000 0.000000 0.000000 -18.445079 5.535740 -3.336193 -53.752400 -13.227832 -7.158125 -111.055579 60.463021 -74.736831 0.000000 0.000000 0.000000 15.611710 -13.455654 -6.775723 56.437689 -10.291327 -16.270271 -165.254411 -38.925144 150.725072 0.000000 0.000000 0.000000 
0.014055 0.816708 0.016380 -1.629209 -4.281158 2.400450 18.903480 -1.656239 27.500573 -12.474771 -1.410895 -48.331628 106.490312 38.083553 111.787039 0.000000 0.000000 0.000000 -28.185085 5.753258 26.173723 27.530930 9.088507 -52.334291 -105.884173 -43.566753 111.298593 0.000000 0.000000 0.000000 0.269667 0.759210 -14.650430 1.737558 0.926772 -39.283075 6.211376 5.117196 51.062716 1.330989 2.752506 -83.279588 0.000000 0.000000 0.000000 -19.337221 3.821715 -2.921714 -51.497768 -13.677843 -6.153565 -93.095841 64.766002 -64.937455 0.000000 0.000000 0.000000 16.823578 -11.943677 -5.948175 53.639640 -7.488274 -13.894416 -153.930688 -39.489143 124.505796 0.000000 0.000000 0.000000 
0.017764 0.817394 0.018610 -1.467791 -5.129910 0.132732 18.812430 -1.447801 28.871443 -13.145472 -1.387648 -45.975841 106.009095 41.694874 108.178528 0.000000 0.000000 0.000000 -28.987540 6.054396 26.149622 28.080859 8.793544 -49.054601 -103.397506 -45.933431 107.395195 0.000000 0.000000 0.000000 0.904137 0.798448 -13.736657 2.603398 0.721671 -37.336662 5.585521 6.867433 48.475916 2.831621 2.555433 -80.366815 0.000000 0.000000 0.000000 -21.565349 2.168218 -2.567410 -48.200290 -13.305058 -5.663200 -56.220948 64.940160 -37.219456 0.000000 0.000000 0.000000 17.720215 -10.102208 -4.856424 51.115144 -4.452145 -11.940941 -134.372636 -40.931379 92.981242 0.000000 0.000000 0.000000 
0.020484 0.816706 0.020867 -1.317458 -5.693557 -1.686869 19.087230 -1.341561 29.071635 -14.225873 -1.447746 -43.081667 109.034831 46.282921 104.624017 0.000000 0.000000 0.000000 -28.945194 5.936631 25.523201 28.363361 8.165421 -45.370135 -104.751495 -51.159886 101.933529 0.000000 0.000000 0.000000 1.624064 0.890117 -13.561385 1.840869 0.586480 -33.685388 6.001608 8.444239 44.485118 3.665128 2.383995 -75.738922 0.000000 0.000000 0.000000 -21.889954 0.706725 -2.274397 -48.282948 -12.703124 -5.219745 -27.445144 57.913848 -16.196507 0.000000 0.000000 0.000000 18.419917 -9.712496 -4.594884 50.216776 -1.569737 -10.201442 -97.786796 -41.337723 54.930330 0.000000 0.000000 0.000000 
0.021952 0.816414 0.023288 -1.422706 -5.986034 -3.018955 19.333038 -1.333987 29.889711 -15.398195 -1.605785 -41.287521 108.962185 48.490002 102.358290 0.000000 0.000000 0.000000 -28.637886 5.716610 25.009948 28.669023 7.386920 -41.549316 -104.815989 -53.993368 98.559950 0.000000 0.000000 0.000000 2.371769 0.947749 -12.962367 1.684170 0.584258 -33.336481 5.374286 8.865236 43.422493 2.250094 2.584101 -74.608297 0.000000 0.000000 0.000000 -23.847334 -0.062737 -2.126267 -46.408884 -11.850242 -5.245242 -12.977595 50.508593 -7.207011 0.000000 0.000000 0.000000 19.653241 -8.191881 -3.779971 49.680067 0.402022 -9.384094 -62.177939 -33.987619 25.881667 0.000000 0.000000 0.000000 
0.022672 0.816083 0.026519 -1.359235 -6.827093 -4.417425 19.085640 -1.041206 29.401605 -15.909601 -1.244106 -36.733203 108.291676 55.778064 94.112875 0.000000 0.000000 0.000000 -28.376394 5.355026 23.068925 29.171511 6.014192 -34.888577 -94.993253 -61.188101 82.259494 0.000000 0.000000 0.000000 3.161252 1.006362 -12.182024 1.436498 0.347550 -28.660824 4.425975 10.679785 37.936658 3.377301 2.463624 -67.856778 0.000000 0.000000 0.000000 -24.229561 -0.121876 -2.803797 -45.916070 -8.619472 -5.471808 -4.322291 40.552723 -2.906616 0.000000 0.000000 0.000000 20.327886 -8.637546 -4.070051 50.298540 0.046100 -8.911337 -35.681795 -13.742345 6.724845 0.000000 0.000000 0.000000 
